<?xml version="1.0" encoding="UTF-8"?>
<svg id="Layer_1" xmlns="http://www.w3.org/2000/svg" version="1.1" viewBox="0 0 528.36 165.48">
  <!-- Generator: Adobe Illustrator 29.4.0, SVG Export Plug-In . SVG Version: 2.1.0 Build 152)  -->
  <defs>
    <style>
      .st0 {
        fill: #2e7d5e;
      }

      .st1 {
        fill: #f4f4f5;
      }

      .st2 {
        fill: none;
        stroke: #2e7d5e;
        stroke-miterlimit: 10;
        stroke-width: 3px;
      }

      .st3 {
        fill: #4e7bbd;
      }
    </style>
  </defs>
  <path class="st3" d="M146.67,1.65H3.64C1.71,1.65.15,3.28.15,5.3v6.4c0,2.02,1.56,3.65,3.48,3.65h63.59v92.46c0,2.12,1.64,3.84,3.66,3.84h5.75c2.02,0,3.66-1.72,3.66-3.84V15.35h66.38c1.92,0,3.48-1.64,3.48-3.65v-6.4c0-2.02-1.56-3.65-3.48-3.65h0Z"/>
  <rect class="st0" x="7.1" y="29.87" width="50" height="15" rx="2.16" ry="2.16"/>
  <g>
    <rect class="st1" x="93.06" y="29.87" width="50" height="15" rx="2.16" ry="2.16"/>
    <rect class="st1" x="93.06" y="50.22" width="40" height="15" rx="1.93" ry="1.93"/>
    <rect class="st1" x="93.06" y="69.81" width="30" height="15" rx="1.67" ry="1.67"/>
    <rect class="st1" x="93.06" y="89.39" width="20" height="15" rx="1.36" ry="1.36"/>
  </g>
  <rect class="st0" x=".15" y="1.65" width="150" height="20" rx="4.31" ry="4.31"/>
  <rect class="st0" x="64.66" y="1.65" width="20" height="110" rx="3.69" ry="3.69"/>
  <g>
    <path class="st1" d="M187.11,113.55V22.05h-28.35V1.8h79.5v20.25h-27.9v91.5h-23.25Z"/>
    <path class="st1" d="M234.06,113.55L271.86,1.8h30.9l37.8,111.75h-25.35l-7.5-22.8h-40.95l-7.5,22.8h-25.2,0ZM273.21,70.5h28.05l-17.1-52.8h6.3l-17.25,52.8h0Z"/>
    <path class="st1" d="M391.26,115.35c-7,0-13.58-1.27-19.72-3.82-6.15-2.55-11.45-6.17-15.9-10.88-4.45-4.7-7.78-10.25-9.97-16.65l19.05-8.55c2.8,6.1,6.67,10.9,11.62,14.4,4.95,3.5,10.42,5.25,16.42,5.25,3.2,0,5.95-.5,8.25-1.5s4.1-2.37,5.4-4.12,1.95-3.82,1.95-6.22c0-2.6-.8-4.82-2.4-6.67s-4.1-3.32-7.5-4.42l-21.9-7.2c-8.9-2.9-15.6-7.02-20.1-12.38-4.5-5.35-6.75-11.77-6.75-19.27,0-6.6,1.62-12.4,4.88-17.4,3.25-5,7.8-8.9,13.65-11.7,5.84-2.82,12.57-4.22,20.17-4.22,6.7,0,12.9,1.15,18.6,3.45,5.7,2.3,10.62,5.55,14.78,9.75,4.15,4.2,7.27,9.25,9.38,15.15l-18.9,8.55c-2.1-5.2-5.25-9.27-9.45-12.23-4.2-2.95-9-4.42-14.4-4.42-3.1,0-5.85.5-8.25,1.5s-4.25,2.43-5.55,4.27c-1.3,1.85-1.95,3.98-1.95,6.38,0,2.6.85,4.88,2.55,6.82,1.7,1.95,4.25,3.48,7.65,4.58l21.45,6.9c9,2.9,15.72,6.95,20.18,12.15,4.45,5.2,6.67,11.55,6.67,19.05,0,6.5-1.7,12.28-5.1,17.32-3.4,5.05-8.08,9-14.02,11.85-5.95,2.85-12.88,4.27-20.78,4.27h-.01Z"/>
    <path class="st1" d="M488.31,115.35c-7,0-13.58-1.27-19.72-3.82-6.15-2.55-11.45-6.17-15.9-10.88-4.45-4.7-7.78-10.25-9.97-16.65l19.05-8.55c2.8,6.1,6.67,10.9,11.62,14.4,4.95,3.5,10.42,5.25,16.42,5.25,3.2,0,5.95-.5,8.25-1.5s4.1-2.37,5.4-4.12,1.95-3.82,1.95-6.22c0-2.6-.8-4.82-2.4-6.67s-4.1-3.32-7.5-4.42l-21.9-7.2c-8.9-2.9-15.6-7.02-20.1-12.38-4.5-5.35-6.75-11.77-6.75-19.27,0-6.6,1.62-12.4,4.88-17.4,3.25-5,7.8-8.9,13.65-11.7,5.84-2.82,12.57-4.22,20.17-4.22,6.7,0,12.9,1.15,18.6,3.45,5.7,2.3,10.62,5.55,14.78,9.75,4.15,4.2,7.27,9.25,9.38,15.15l-18.9,8.55c-2.1-5.2-5.25-9.27-9.45-12.23-4.2-2.95-9-4.42-14.4-4.42-3.1,0-5.85.5-8.25,1.5s-4.25,2.43-5.55,4.27c-1.3,1.85-1.95,3.98-1.95,6.38,0,2.6.85,4.88,2.55,6.82,1.7,1.95,4.25,3.48,7.65,4.58l21.45,6.9c9,2.9,15.72,6.95,20.18,12.15,4.45,5.2,6.67,11.55,6.67,19.05,0,6.5-1.7,12.28-5.1,17.32-3.4,5.05-8.08,9-14.02,11.85-5.95,2.85-12.88,4.27-20.78,4.27h-.01Z"/>
  </g>
  <line class="st2" x1=".15" y1="132.45" x2="528.21" y2="132.45"/>
  <g>
    <path class="st1" d="M5.75,165.16v-17.68H.3v-2.43h13.5v2.43h-5.37v17.68h-2.68Z"/>
    <path class="st1" d="M16.31,165.16v-20.12h13.12v2.43h-10.45v6.37h9.91v2.46h-9.91v6.43h10.45v2.43h-13.12Z"/>
    <path class="st1" d="M30.75,165.16l6.56-10.21-6.4-9.91h3.02l5.43,8.45h-1.13l5.43-8.45h3.02l-6.4,9.91,6.56,10.21h-3.02l-5.59-8.75,1.13.03-5.62,8.72h-3,0Z"/>
    <path class="st1" d="M52.89,165.16v-17.68h-5.45v-2.43h13.5v2.43h-5.37v17.68h-2.68Z"/>
    <path class="st1" d="M69.01,165.16l7.21-20.12h3.13l7.21,20.12h-2.83l-1.65-4.7h-8.59l-1.65,4.7h-2.83,0ZM74.32,158h6.88l-3.81-11.02h.76l-3.83,11.02Z"/>
    <path class="st1" d="M89.07,165.16v-20.12h2.24l11.53,16.25-.97.11v-16.36h2.67v20.12h-2.24l-11.48-16.36.92-.11v16.47s-2.67,0-2.67,0Z"/>
    <path class="st1" d="M107.07,165.16l7.21-20.12h3.13l7.21,20.12h-2.83l-1.65-4.7h-8.59l-1.65,4.7h-2.83,0ZM112.39,158h6.88l-3.81-11.02h.76l-3.83,11.02Z"/>
    <path class="st1" d="M127.13,165.16v-20.12h2.67v17.69h8.83v2.43h-11.5Z"/>
    <path class="st1" d="M144.2,165.16v-9.21l-6.97-10.91h3l5.83,9.15h-1.08l5.8-9.15h3l-6.91,10.91v9.21h-2.67Z"/>
    <path class="st1" d="M162.4,165.48c-1.26,0-2.42-.24-3.48-.72s-1.96-1.13-2.7-1.96c-.74-.83-1.28-1.75-1.62-2.78l2.32-.95c.49,1.3,1.21,2.29,2.17,2.98.96.69,2.09,1.04,3.39,1.04.79,0,1.49-.13,2.08-.38s1.06-.61,1.39-1.07.5-1,.5-1.61c0-.85-.24-1.51-.71-2-.48-.49-1.17-.86-2.09-1.13l-3.7-1.13c-1.46-.45-2.58-1.16-3.36-2.12s-1.17-2.08-1.17-3.36c0-1.1.27-2.07.81-2.9.54-.84,1.28-1.49,2.23-1.97.94-.48,2.02-.72,3.23-.72s2.3.22,3.28.65,1.81,1.01,2.5,1.74c.68.73,1.19,1.56,1.51,2.5l-2.29.94c-.41-1.12-1.06-1.97-1.93-2.56s-1.89-.89-3.04-.89c-.72,0-1.35.12-1.9.37s-.97.6-1.27,1.07-.45,1.01-.45,1.62c0,.74.23,1.39.7,1.97s1.18,1.02,2.13,1.32l3.38,1c1.58.49,2.78,1.18,3.59,2.08.81.9,1.21,2.02,1.21,3.35,0,1.1-.28,2.07-.85,2.92-.57.85-1.35,1.51-2.35,1.98s-2.16.72-3.5.72h-.01Z"/>
    <path class="st1" d="M172.92,165.16v-20.12h2.67v20.12h-2.67Z"/>
    <path class="st1" d="M186.96,165.48c-1.26,0-2.42-.24-3.48-.72s-1.96-1.13-2.7-1.96c-.74-.83-1.28-1.75-1.62-2.78l2.32-.95c.49,1.3,1.21,2.29,2.17,2.98.96.69,2.09,1.04,3.39,1.04.79,0,1.49-.13,2.08-.38s1.06-.61,1.39-1.07.5-1,.5-1.61c0-.85-.24-1.51-.71-2-.48-.49-1.17-.86-2.09-1.13l-3.7-1.13c-1.46-.45-2.58-1.16-3.36-2.12s-1.17-2.08-1.17-3.36c0-1.1.27-2.07.81-2.9.54-.84,1.28-1.49,2.23-1.97.94-.48,2.02-.72,3.23-.72s2.3.22,3.28.65,1.81,1.01,2.5,1.74c.68.73,1.19,1.56,1.51,2.5l-2.29.94c-.41-1.12-1.06-1.97-1.93-2.56s-1.89-.89-3.04-.89c-.72,0-1.35.12-1.9.37s-.97.6-1.27,1.07-.45,1.01-.45,1.62c0,.74.23,1.39.7,1.97s1.18,1.02,2.13,1.32l3.38,1c1.58.49,2.78,1.18,3.59,2.08.81.9,1.21,2.02,1.21,3.35,0,1.1-.28,2.07-.85,2.92-.57.85-1.35,1.51-2.35,1.98s-2.16.72-3.5.72h-.01Z"/>
    <path class="st1" d="M204.97,165.16v-20.12h12.77v2.43h-10.1v6.51h9.15v2.46h-9.15v8.72h-2.67Z"/>
    <path class="st1" d="M230.08,165.48c-1.44,0-2.78-.26-4.01-.77-1.23-.51-2.31-1.24-3.24-2.17-.93-.94-1.66-2.04-2.19-3.31s-.8-2.65-.8-4.14.27-2.88.8-4.14c.53-1.27,1.26-2.37,2.19-3.29s2.01-1.65,3.24-2.16c1.23-.51,2.57-.77,4.01-.77s2.78.26,4.01.77c1.23.51,2.31,1.24,3.24,2.17.93.94,1.66,2.03,2.19,3.29s.8,2.64.8,4.13-.27,2.88-.8,4.14c-.53,1.27-1.26,2.37-2.19,3.31-.93.94-2.01,1.66-3.24,2.17-1.23.51-2.57.77-4.01.77ZM230.08,163.03c1.1,0,2.11-.2,3.02-.61.92-.41,1.71-.97,2.39-1.7.67-.73,1.2-1.58,1.58-2.54s.57-1.99.57-3.09-.19-2.12-.57-3.08c-.38-.95-.9-1.79-1.58-2.52-.67-.73-1.47-1.3-2.39-1.7-.92-.41-1.93-.61-3.02-.61s-2.11.2-3.02.61c-.92.4-1.71.97-2.39,1.7-.67.73-1.2,1.57-1.58,2.52-.38.96-.57,1.98-.57,3.08s.19,2.13.57,3.09.9,1.81,1.58,2.54c.67.73,1.47,1.3,2.39,1.7s1.93.61,3.02.61Z"/>
    <path class="st1" d="M244.15,165.16v-20.12h7.13c1.33,0,2.5.25,3.51.76,1.01.5,1.8,1.22,2.36,2.16.57.94.85,2.04.85,3.32,0,1.4-.36,2.61-1.08,3.6-.72,1-1.69,1.71-2.92,2.15l4.67,8.13h-3.08l-4.94-8.72,1.78,1.03h-5.62v7.7h-2.67,0ZM246.82,155.03h4.54c.79,0,1.49-.15,2.08-.46.59-.31,1.06-.75,1.39-1.32.33-.58.5-1.24.5-2s-.17-1.44-.5-2.01c-.33-.57-.8-1-1.39-1.31s-1.29-.46-2.08-.46h-4.54v7.56h0Z"/>
    <path class="st1" d="M276.03,165.48c-1.26,0-2.42-.24-3.48-.72s-1.96-1.13-2.7-1.96c-.74-.83-1.28-1.75-1.62-2.78l2.32-.95c.49,1.3,1.21,2.29,2.17,2.98.96.69,2.09,1.04,3.39,1.04.79,0,1.49-.13,2.08-.38s1.06-.61,1.39-1.07c.33-.46.5-1,.5-1.61,0-.85-.24-1.51-.71-2-.48-.49-1.17-.86-2.09-1.13l-3.7-1.13c-1.46-.45-2.58-1.16-3.36-2.12s-1.17-2.08-1.17-3.36c0-1.1.27-2.07.81-2.9.54-.84,1.28-1.49,2.23-1.97.94-.48,2.02-.72,3.23-.72s2.3.22,3.28.65,1.81,1.01,2.5,1.74c.68.73,1.19,1.56,1.51,2.5l-2.29.94c-.41-1.12-1.06-1.97-1.93-2.56s-1.89-.89-3.04-.89c-.72,0-1.35.12-1.9.37s-.97.6-1.27,1.07-.45,1.01-.45,1.62c0,.74.23,1.39.7,1.97s1.18,1.02,2.13,1.32l3.38,1c1.58.49,2.78,1.18,3.59,2.08.81.9,1.21,2.02,1.21,3.35,0,1.1-.28,2.07-.85,2.92-.57.85-1.35,1.51-2.35,1.98s-2.16.72-3.5.72h-.01Z"/>
    <path class="st1" d="M296.2,165.48c-1.44,0-2.78-.26-4.01-.77-1.23-.51-2.31-1.24-3.24-2.17-.93-.94-1.66-2.04-2.19-3.31s-.8-2.65-.8-4.14.27-2.88.8-4.14c.53-1.27,1.26-2.37,2.19-3.29s2.01-1.65,3.24-2.16c1.23-.51,2.57-.77,4.01-.77s2.78.26,4.01.77c1.23.51,2.31,1.24,3.24,2.17.93.94,1.66,2.03,2.19,3.29s.8,2.64.8,4.13-.27,2.88-.8,4.14c-.53,1.27-1.26,2.37-2.19,3.31s-2.01,1.66-3.24,2.17c-1.23.51-2.57.77-4.01.77ZM296.2,163.03c1.1,0,2.11-.2,3.02-.61.92-.41,1.71-.97,2.39-1.7.67-.73,1.2-1.58,1.58-2.54s.57-1.99.57-3.09-.19-2.12-.57-3.08c-.38-.95-.9-1.79-1.58-2.52-.67-.73-1.47-1.3-2.39-1.7-.92-.41-1.93-.61-3.02-.61s-2.11.2-3.02.61c-.92.4-1.71.97-2.39,1.7-.67.73-1.2,1.57-1.58,2.52-.38.96-.57,1.98-.57,3.08s.19,2.13.57,3.09.9,1.81,1.58,2.54c.67.73,1.47,1.3,2.39,1.7s1.93.61,3.02.61Z"/>
    <path class="st1" d="M319.55,165.48c-1.42,0-2.74-.26-3.94-.77-1.21-.51-2.25-1.24-3.13-2.17-.88-.94-1.57-2.03-2.07-3.29s-.74-2.64-.74-4.13.25-2.9.74-4.16c.5-1.26,1.18-2.36,2.07-3.29.88-.94,1.92-1.66,3.12-2.17,1.2-.51,2.51-.77,3.96-.77s2.63.24,3.74.73c1.11.49,2.04,1.12,2.81,1.89.76.77,1.31,1.6,1.63,2.48l-2.43,1.13c-.47-1.13-1.2-2.05-2.19-2.74s-2.18-1.04-3.56-1.04-2.65.33-3.74,1-1.94,1.59-2.55,2.78-.92,2.57-.92,4.16.31,2.94.92,4.13c.61,1.19,1.46,2.12,2.55,2.78,1.09.67,2.33,1,3.74,1s2.57-.35,3.56-1.04c.99-.69,1.72-1.6,2.19-2.71l2.43,1.11c-.32.88-.87,1.71-1.63,2.48-.77.77-1.7,1.4-2.81,1.89s-2.35.73-3.74.73h0Z"/>
    <path class="st1" d="M331.3,165.16v-20.12h2.67v20.12h-2.67Z"/>
    <path class="st1" d="M336.51,165.16l7.21-20.12h3.13l7.21,20.12h-2.83l-1.65-4.7h-8.59l-1.65,4.7h-2.83ZM341.83,158h6.88l-3.81-11.02h.76l-3.83,11.02h0Z"/>
    <path class="st1" d="M356.57,165.16v-20.12h2.67v17.69h8.83v2.43h-11.5Z"/>
    <path class="st1" d="M385.4,165.48c-1.26,0-2.42-.24-3.48-.72s-1.96-1.13-2.7-1.96c-.74-.83-1.28-1.75-1.62-2.78l2.32-.95c.49,1.3,1.21,2.29,2.17,2.98.96.69,2.09,1.04,3.39,1.04.79,0,1.49-.13,2.08-.38s1.06-.61,1.39-1.07c.33-.46.5-1,.5-1.61,0-.85-.24-1.51-.71-2-.48-.49-1.17-.86-2.09-1.13l-3.7-1.13c-1.46-.45-2.58-1.16-3.36-2.12s-1.17-2.08-1.17-3.36c0-1.1.27-2.07.81-2.9.54-.84,1.28-1.49,2.23-1.97.94-.48,2.02-.72,3.23-.72s2.3.22,3.28.65,1.81,1.01,2.5,1.74c.68.73,1.19,1.56,1.51,2.5l-2.29.94c-.41-1.12-1.06-1.97-1.93-2.56s-1.89-.89-3.04-.89c-.72,0-1.35.12-1.9.37s-.97.6-1.27,1.07-.45,1.01-.45,1.62c0,.74.23,1.39.7,1.97s1.18,1.02,2.13,1.32l3.38,1c1.58.49,2.78,1.18,3.59,2.08.81.9,1.21,2.02,1.21,3.35,0,1.1-.28,2.07-.85,2.92-.57.85-1.35,1.51-2.35,1.98s-2.16.72-3.5.72h-.01Z"/>
    <path class="st1" d="M405.21,165.48c-1.42,0-2.74-.26-3.94-.77-1.21-.51-2.25-1.24-3.13-2.17-.88-.94-1.57-2.03-2.07-3.29s-.74-2.64-.74-4.13.25-2.9.74-4.16c.5-1.26,1.18-2.36,2.07-3.29.88-.94,1.92-1.66,3.12-2.17,1.2-.51,2.51-.77,3.96-.77s2.63.24,3.74.73c1.11.49,2.04,1.12,2.81,1.89.76.77,1.31,1.6,1.63,2.48l-2.43,1.13c-.47-1.13-1.2-2.05-2.19-2.74s-2.18-1.04-3.56-1.04-2.65.33-3.74,1-1.94,1.59-2.55,2.78-.92,2.57-.92,4.16.31,2.94.92,4.13c.61,1.19,1.46,2.12,2.55,2.78,1.09.67,2.33,1,3.74,1s2.57-.35,3.56-1.04c.99-.69,1.72-1.6,2.19-2.71l2.43,1.11c-.32.88-.87,1.71-1.63,2.48-.77.77-1.7,1.4-2.81,1.89s-2.35.73-3.74.73h0Z"/>
    <path class="st1" d="M416.96,165.16v-20.12h2.67v20.12h-2.67Z"/>
    <path class="st1" d="M424.09,165.16v-20.12h13.12v2.43h-10.45v6.37h9.91v2.46h-9.91v6.43h10.45v2.43h-13.12Z"/>
    <path class="st1" d="M440.45,165.16v-20.12h2.24l11.53,16.25-.97.11v-16.36h2.67v20.12h-2.24l-11.48-16.36.92-.11v16.47h-2.67Z"/>
    <path class="st1" d="M463.91,165.16v-17.68h-5.45v-2.43h13.5v2.43h-5.37v17.68h-2.68Z"/>
    <path class="st1" d="M474.47,165.16v-20.12h2.67v20.12h-2.67Z"/>
    <path class="st1" d="M488.51,165.48c-1.26,0-2.42-.24-3.48-.72s-1.96-1.13-2.7-1.96c-.74-.83-1.28-1.75-1.62-2.78l2.32-.95c.49,1.3,1.21,2.29,2.17,2.98.96.69,2.09,1.04,3.39,1.04.79,0,1.49-.13,2.08-.38s1.06-.61,1.39-1.07c.33-.46.5-1,.5-1.61,0-.85-.24-1.51-.71-2-.48-.49-1.17-.86-2.09-1.13l-3.7-1.13c-1.46-.45-2.58-1.16-3.36-2.12s-1.17-2.08-1.17-3.36c0-1.1.27-2.07.81-2.9.54-.84,1.28-1.49,2.23-1.97.94-.48,2.02-.72,3.23-.72s2.3.22,3.28.65,1.81,1.01,2.5,1.74c.68.73,1.19,1.56,1.51,2.5l-2.29.94c-.41-1.12-1.06-1.97-1.93-2.56s-1.89-.89-3.04-.89c-.72,0-1.35.12-1.9.37s-.97.6-1.27,1.07-.45,1.01-.45,1.62c0,.74.23,1.39.7,1.97s1.18,1.02,2.13,1.32l3.38,1c1.58.49,2.78,1.18,3.59,2.08.81.9,1.21,2.02,1.21,3.35,0,1.1-.28,2.07-.85,2.92-.57.85-1.35,1.51-2.35,1.98s-2.16.72-3.5.72h-.01Z"/>
    <path class="st1" d="M502.58,165.16v-17.68h-5.45v-2.43h13.5v2.43h-5.37v17.68h-2.68Z"/>
    <path class="st1" d="M520.04,165.48c-1.26,0-2.42-.24-3.48-.72s-1.96-1.13-2.7-1.96-1.28-1.75-1.62-2.78l2.32-.95c.49,1.3,1.21,2.29,2.17,2.98.96.69,2.09,1.04,3.39,1.04.79,0,1.49-.13,2.08-.38s1.06-.61,1.39-1.07.5-1,.5-1.61c0-.85-.24-1.51-.71-2-.48-.49-1.17-.86-2.09-1.13l-3.7-1.13c-1.46-.45-2.58-1.16-3.36-2.12s-1.17-2.08-1.17-3.36c0-1.1.27-2.07.81-2.9.54-.84,1.28-1.49,2.23-1.97.94-.48,2.02-.72,3.23-.72s2.3.22,3.28.65c.98.43,1.81,1.01,2.5,1.74.68.73,1.19,1.56,1.51,2.5l-2.29.94c-.41-1.12-1.06-1.97-1.93-2.56s-1.89-.89-3.04-.89c-.72,0-1.35.12-1.9.37s-.97.6-1.27,1.07c-.3.47-.45,1.01-.45,1.62,0,.74.23,1.39.7,1.97s1.18,1.02,2.13,1.32l3.38,1c1.58.49,2.78,1.18,3.59,2.08.81.9,1.21,2.02,1.21,3.35,0,1.1-.28,2.07-.85,2.92-.57.85-1.35,1.51-2.35,1.98s-2.16.72-3.5.72h-.01Z"/>
  </g>
</svg>